<?xml version="1.0" encoding="UTF-8" standalone="no"?>
<svg width="400" height="300" viewBox="0 0 400 300" xmlns="http://www.w3.org/2000/svg">
  <!-- Background -->
  <rect width="400" height="300" fill="#f0f7ff"/>
  
  <!-- Road -->
  <rect x="0" y="200" width="400" height="60" fill="#555555"/>
  <rect x="20" y="229" width="40" height="4" fill="#ffffff"/>
  <rect x="100" y="229" width="40" height="4" fill="#ffffff"/>
  <rect x="180" y="229" width="40" height="4" fill="#ffffff"/>
  <rect x="260" y="229" width="40" height="4" fill="#ffffff"/>
  <rect x="340" y="229" width="40" height="4" fill="#ffffff"/>
  
  <!-- Airport Terminal -->
  <rect x="20" y="50" width="150" height="100" fill="#e0e0e0" stroke="#cccccc" stroke-width="2"/>
  <rect x="70" y="120" width="50" height="30" fill="#d0d0d0"/>
  <rect x="30" y="70" width="30" height="20" fill="#a0d8ef"/>
  <rect x="70" y="70" width="30" height="20" fill="#a0d8ef"/>
  <rect x="110" y="70" width="30" height="20" fill="#a0d8ef"/>
  
  <!-- Airport Tower -->
  <rect x="140" y="20" width="20" height="30" fill="#d0d0d0"/>
  <polygon points="130,20 170,20 150,0" fill="#d0d0d0"/>
  
  <!-- Car/Van -->
  <rect x="250" y="180" width="100" height="30" rx="10" ry="10" fill="#3498db"/>
  <rect x="270" y="160" width="60" height="20" fill="#3498db"/>
  <circle cx="280" cy="210" r="10" fill="#333333"/>
  <circle cx="320" cy="210" r="10" fill="#333333"/>
  <rect x="275" y="170" width="15" height="10" fill="#a0d8ef"/>
  <rect x="300" y="170" width="15" height="10" fill="#a0d8ef"/>
  
  <!-- Airplane -->
  <path d="M180,100 L200,80 L240,80 L260,100 L240,120 L200,120 Z" fill="#f5f5f5" stroke="#cccccc" stroke-width="1"/>
  <rect x="220" y="80" width="40" height="40" fill="#f5f5f5" stroke="#cccccc" stroke-width="1"/>
  <path d="M260,100 L280,90 L280,110 Z" fill="#f5f5f5" stroke="#cccccc" stroke-width="1"/>
  <path d="M200,90 L180,70 L180,130 L200,110 Z" fill="#f5f5f5" stroke="#cccccc" stroke-width="1"/>
  
  <!-- Title -->
  <text x="200" y="270" font-family="Arial" font-size="18" fill="#333333" text-anchor="middle">Airport Transfers</text>
  <text x="200" y="290" font-family="Arial" font-size="12" fill="#666666" text-anchor="middle">Reliable pickup and drop-off service</text>
</svg>