<?xml version="1.0" encoding="UTF-8" standalone="no"?>
<svg width="400" height="200" viewBox="0 0 400 200" xmlns="http://www.w3.org/2000/svg">
  <!-- Background -->
  <rect width="400" height="200" fill="#f5a742" />
  
  <!-- Market stalls -->
  <rect x="50" y="80" width="60" height="80" fill="#e74c3c" />
  <rect x="120" y="90" width="70" height="70" fill="#8e44ad" />
  <rect x="200" y="85" width="65" height="75" fill="#27ae60" />
  <rect x="275" y="95" width="75" height="65" fill="#3498db" />
  
  <!-- Market items -->
  <circle cx="80" cy="70" r="15" fill="#f1c40f" /> <!-- Fruit -->
  <circle cx="155" cy="75" r="12" fill="#e67e22" /> <!-- Fruit -->
  <circle cx="232" cy="65" r="18" fill="#2ecc71" /> <!-- Vegetable -->
  <circle cx="310" cy="80" r="14" fill="#9b59b6" /> <!-- Craft item -->
  
  <!-- People silhouettes -->
  <circle cx="70" cy="130" r="10" fill="#34495e" />
  <rect x="65" cy="140" width="10" height="20" fill="#34495e" />
  
  <circle cx="150" cy="140" r="10" fill="#34495e" />
  <rect x="145" cy="150" width="10" height="20" fill="#34495e" />
  
  <circle cx="230" cy="135" r="10" fill="#34495e" />
  <rect x="225" cy="145" width="10" height="20" fill="#34495e" />
  
  <circle cx="300" cy="145" r="10" fill="#34495e" />
  <rect x="295" cy="155" width="10" height="20" fill="#34495e" />
  
  <!-- Text -->
  <text x="200" y="40" font-family="Arial, sans-serif" font-size="20" font-weight="bold" text-anchor="middle" fill="#34495e">Maasai Market Shopping</text>
</svg>