<?xml version="1.0" encoding="UTF-8" standalone="no"?>
<svg width="400" height="200" viewBox="0 0 400 200" xmlns="http://www.w3.org/2000/svg">
  <!-- Dark background for nightlife -->
  <rect width="400" height="200" fill="#1a1a2e" />
  
  <!-- Colorful stage lights -->
  <circle cx="100" cy="50" r="30" fill="#e74c3c" opacity="0.7" />
  <circle cx="200" cy="40" r="25" fill="#3498db" opacity="0.7" />
  <circle cx="300" cy="60" r="35" fill="#2ecc71" opacity="0.7" />
  
  <!-- Stage -->
  <rect x="50" y="120" width="300" height="40" fill="#34495e" />
  
  <!-- Musicians silhouettes -->
  <!-- Drummer -->
  <circle cx="100" cy="105" r="10" fill="#000" />
  <rect x="90" y="115" width="20" height="30" fill="#000" />
  <circle cx="100" cy="140" r="15" fill="#444" /> <!-- Drum -->
  
  <!-- Guitar player -->
  <circle cx="200" cy="105" r="10" fill="#000" />
  <rect x="195" y="115" width="10" height="30" fill="#000" />
  <path d="M180,120 L220,130 L215,150 L185,140 Z" fill="#8B4513" /> <!-- Guitar -->
  
  <!-- Singer -->
  <circle cx="300" cy="105" r="10" fill="#000" />
  <rect x="295" y="115" width="10" height="30" fill="#000" />
  <rect x="298" y="90" width="4" height="20" fill="#888" /> <!-- Microphone -->
  
  <!-- Sound waves -->
  <path d="M320,90 Q330,85 320,80" stroke="#fff" fill="none" stroke-width="2" />
  <path d="M325,90 Q340,80 325,70" stroke="#fff" fill="none" stroke-width="2" />
  <path d="M330,90 Q350,75 330,60" stroke="#fff" fill="none" stroke-width="2" />
  
  <!-- Audience silhouettes -->
  <circle cx="80" cy="180" r="8" fill="#000" />
  <circle cx="120" cy="185" r="8" fill="#000" />
  <circle cx="160" cy="180" r="8" fill="#000" />
  <circle cx="200" cy="185" r="8" fill="#000" />
  <circle cx="240" cy="180" r="8" fill="#000" />
  <circle cx="280" cy="185" r="8" fill="#000" />
  <circle cx="320" cy="180" r="8" fill="#000" />
  
  <!-- Text -->
  <text x="200" y="30" font-family="Arial, sans-serif" font-size="20" font-weight="bold" text-anchor="middle" fill="#fff">Nairobi Live Music Tour</text>
</svg>