<?xml version="1.0" encoding="UTF-8" standalone="no"?>
<svg width="400" height="300" viewBox="0 0 400 300" xmlns="http://www.w3.org/2000/svg">
  <!-- Night sky background -->
  <rect width="400" height="300" fill="#0a0e17"/>
  
  <!-- Stars -->
  <circle cx="30" cy="40" r="1" fill="#ffffff"/>
  <circle cx="70" cy="20" r="1" fill="#ffffff"/>
  <circle cx="120" cy="50" r="1" fill="#ffffff"/>
  <circle cx="180" cy="30" r="1" fill="#ffffff"/>
  <circle cx="250" cy="60" r="1" fill="#ffffff"/>
  <circle cx="300" cy="25" r="1" fill="#ffffff"/>
  <circle cx="350" cy="45" r="1" fill="#ffffff"/>
  <circle cx="380" cy="15" r="1" fill="#ffffff"/>
  
  <!-- Moon -->
  <circle cx="350" cy="50" r="20" fill="#f9f9d0"/>
  
  <!-- City skyline -->
  <rect x="20" y="150" width="40" height="150" fill="#1a1a2e"/>
  <rect x="60" y="180" width="30" height="120" fill="#16213e"/>
  <rect x="90" y="130" width="50" height="170" fill="#1a1a2e"/>
  <rect x="140" y="160" width="35" height="140" fill="#16213e"/>
  <rect x="175" y="100" width="60" height="200" fill="#1a1a2e"/>
  <rect x="235" y="140" width="45" height="160" fill="#16213e"/>
  <rect x="280" y="120" width="70" height="180" fill="#1a1a2e"/>
  <rect x="350" y="170" width="30" height="130" fill="#16213e"/>
  
  <!-- Building windows (lit) -->
  <rect x="30" y="170" width="5" height="8" fill="#f9d923"/>
  <rect x="45" y="170" width="5" height="8" fill="#f9d923"/>
  <rect x="30" y="190" width="5" height="8" fill="#f9d923"/>
  <rect x="45" y="190" width="5" height="8" fill="#36eee0"/>
  <rect x="30" y="210" width="5" height="8" fill="#36eee0"/>
  <rect x="45" y="210" width="5" height="8" fill="#f9d923"/>
  <rect x="30" y="230" width="5" height="8" fill="#f9d923"/>
  <rect x="45" y="230" width="5" height="8" fill="#36eee0"/>
  
  <rect x="70" y="200" width="5" height="8" fill="#f9d923"/>
  <rect x="80" y="200" width="5" height="8" fill="#36eee0"/>
  <rect x="70" y="220" width="5" height="8" fill="#36eee0"/>
  <rect x="80" y="220" width="5" height="8" fill="#f9d923"/>
  <rect x="70" y="240" width="5" height="8" fill="#f9d923"/>
  <rect x="80" y="240" width="5" height="8" fill="#36eee0"/>
  
  <rect x="100" y="150" width="5" height="8" fill="#f9d923"/>
  <rect x="115" y="150" width="5" height="8" fill="#36eee0"/>
  <rect x="130" y="150" width="5" height="8" fill="#f9d923"/>
  <rect x="100" y="170" width="5" height="8" fill="#36eee0"/>
  <rect x="115" y="170" width="5" height="8" fill="#f9d923"/>
  <rect x="130" y="170" width="5" height="8" fill="#36eee0"/>
  <rect x="100" y="190" width="5" height="8" fill="#f9d923"/>
  <rect x="115" y="190" width="5" height="8" fill="#36eee0"/>
  <rect x="130" y="190" width="5" height="8" fill="#f9d923"/>
  <rect x="100" y="210" width="5" height="8" fill="#36eee0"/>
  <rect x="115" y="210" width="5" height="8" fill="#f9d923"/>
  <rect x="130" y="210" width="5" height="8" fill="#36eee0"/>
  
  <!-- Nightclub with neon lights -->
  <rect x="190" y="200" width="30" height="100" fill="#1a1a2e"/>
  <rect x="190" y="190" width="30" height="10" fill="#ff2e63"/>
  <text x="195" y="198" font-family="Arial" font-size="8" fill="#ffffff">CLUB</text>
  
  <!-- Neon sign -->
  <path d="M195 210 Q205 205 215 210" stroke="#ff2e63" stroke-width="2" fill="none"/>
  <path d="M195 215 Q205 210 215 215" stroke="#36eee0" stroke-width="2" fill="none"/>
  
  <!-- Street with cars -->
  <rect x="0" y="300" width="400" height="20" fill="#1a1a2e"/>
  <rect x="50" y="290" width="20" height="10" fill="#ff2e63"/>
  <rect x="150" y="290" width="20" height="10" fill="#36eee0"/>
  <rect x="250" y="290" width="20" height="10" fill="#f9d923"/>
  <rect x="350" y="290" width="20" height="10" fill="#ff2e63"/>
  
  <!-- Title -->
  <text x="200" y="40" font-family="Arial" font-size="20" fill="#ffffff" text-anchor="middle">Nairobi Nightlife</text>
  <text x="200" y="65" font-family="Arial" font-size="12" fill="#ffffff" text-anchor="middle">Experience the vibrant city after dark</text>
</svg>